# xmcd
#
# Track frame offsets:
#	150
#	22106
#	44101
#	62794
#	76754
#	98059
#	116524
#	132093
#	151266
#	169940
#
# Disc length: 2470 seconds
#
# Revision: 2
# Processed by: cddbd v1.5.2PL0 Copyright (c) Steve Scherf et al.
# Submitted via: audiograbber 1.83.01
#
DISCID=7e09a40a
DTITLE=John Coinman - River of Fire
DYEAR=1900
DGENRE=Country
TTITLE0=Rio De Fuego
TTITLE1=Sweet Gypsy
TTITLE2=Maria Nay
TTITLE3=Once I Moved Like The Wind
TTITLE4=Down Dead River
TTITLE5=Love Among the Ruins
TTITLE6=Have Faith
TTITLE7=Claytontown
TTITLE8=This Place Ain't What It Used To Be
TTITLE9=Barrio Girl
EXTD=
EXTT0=
EXTT1=
EXTT2=
EXTT3=
EXTT4=
EXTT5=
EXTT6=
EXTT7=
EXTT8=
EXTT9=
PLAYORDER=
